<svg height="195" viewBox="0 0 735 195" width="735" xmlns="http://www.w3.org/2000/svg"><path d="m286.74 110.8c-3.29 0-6.32-.57-9.09-1.7-2.78-1.13-5.18-2.41-7.22-3.82v-7.9c2.21 1.53 4.74 2.9 7.6 4.12s6.1 1.83 9.73 1.83c2.83 0 5.32-.71 7.48-2.12 2.15-1.41 3.23-3.37 3.23-5.86 0-1.42-.44-2.63-1.32-3.65s-1.94-1.9-3.19-2.63c-1.25-.74-2.46-1.36-3.65-1.87l-9.43-4.25c-2.72-1.25-4.84-2.61-6.37-4.08s-2.61-3.1-3.23-4.89c-.62-1.78-.93-3.72-.93-5.82 0-3 .86-5.71 2.59-8.11 1.73-2.41 4.04-4.32 6.92-5.74 2.89-1.41 6-2.12 9.35-2.12s6.1.48 8.28 1.44 4.09 1.98 5.74 3.06v7.9c-1.59-1.19-3.51-2.31-5.78-3.36s-4.73-1.57-7.39-1.57c-1.7 0-3.47.3-5.31.89s-3.38 1.54-4.63 2.85c-1.25 1.3-1.87 2.97-1.87 5.01 0 2.27.82 3.99 2.46 5.18s3.62 2.32 5.95 3.4l7.82 3.57c3.91 1.76 6.85 3.71 8.84 5.86 1.98 2.15 2.97 5.01 2.97 8.58 0 3.12-.91 5.85-2.72 8.2s-4.19 4.21-7.14 5.57-6.17 2.04-9.69 2.04z"/><path d="m319.87 109.95v-56.92h39v7.22h-31.35v42.48h31.35v7.22zm4.84-25.57v-7.22h30.5v7.22z"/><path d="m386.25 110.8c-3.29 0-6.32-.57-9.09-1.7-2.78-1.13-5.18-2.41-7.22-3.82v-7.9c2.21 1.53 4.74 2.9 7.6 4.12s6.1 1.83 9.73 1.83c2.83 0 5.32-.71 7.48-2.12 2.15-1.41 3.23-3.37 3.23-5.86 0-1.42-.44-2.63-1.32-3.65s-1.94-1.9-3.19-2.63c-1.25-.74-2.46-1.36-3.65-1.87l-9.43-4.25c-2.72-1.25-4.84-2.61-6.37-4.08s-2.61-3.1-3.23-4.89c-.62-1.78-.93-3.72-.93-5.82 0-3 .86-5.71 2.59-8.11 1.73-2.41 4.04-4.32 6.92-5.74 2.89-1.41 6-2.12 9.35-2.12s6.1.48 8.28 1.44 4.09 1.98 5.74 3.06v7.9c-1.59-1.19-3.51-2.31-5.78-3.36s-4.73-1.57-7.39-1.57c-1.7 0-3.47.3-5.31.89s-3.38 1.54-4.63 2.85c-1.25 1.3-1.87 2.97-1.87 5.01 0 2.27.82 3.99 2.46 5.18s3.62 2.32 5.95 3.4l7.82 3.57c3.91 1.76 6.85 3.71 8.84 5.86 1.98 2.15 2.97 5.01 2.97 8.58 0 3.12-.91 5.85-2.72 8.2s-4.19 4.21-7.14 5.57-6.17 2.04-9.69 2.04z"/><path d="m410.88 109.95 26.59-56.92h3.82l26.59 56.92h-9.18l-19.2-44.01-19.46 44.01h-9.18zm13.34-13.59v-7.22h31.52v7.22z"/><path d="m478.09 109.95v-56.92h2.38l24.3 26.08 23.87-26.08h2.38v56.92h-7.65v-41.21l-17.59 18.78h-2.04l-18.01-18.78v41.21h-7.65z"/><path d="m566.7 109.95 26.59-56.92h3.82l26.59 56.92h-9.18l-19.2-44.01-19.46 44.01h-9.18zm13.34-13.59v-7.22h31.52v7.22z"/><path d="m627.96 126.95 22.34-76.89h6.03l-22.6 76.89h-5.78z"/><path d="m680.38 110.8c-3.29 0-6.32-.57-9.09-1.7-2.78-1.13-5.18-2.41-7.22-3.82v-7.9c2.21 1.53 4.74 2.9 7.6 4.12s6.1 1.83 9.73 1.83c2.83 0 5.32-.71 7.48-2.12 2.15-1.41 3.23-3.37 3.23-5.86 0-1.42-.44-2.63-1.32-3.65s-1.94-1.9-3.19-2.63c-1.25-.74-2.46-1.36-3.65-1.87l-9.43-4.25c-2.72-1.25-4.84-2.61-6.37-4.08s-2.61-3.1-3.23-4.89c-.62-1.78-.93-3.72-.93-5.82 0-3 .86-5.71 2.59-8.11 1.73-2.41 4.04-4.32 6.92-5.74 2.89-1.41 6-2.12 9.35-2.12s6.1.48 8.28 1.44 4.09 1.98 5.74 3.06v7.9c-1.59-1.19-3.51-2.31-5.78-3.36s-4.73-1.57-7.39-1.57c-1.7 0-3.47.3-5.31.89s-3.38 1.54-4.63 2.85c-1.25 1.3-1.87 2.97-1.87 5.01 0 2.27.82 3.99 2.46 5.18s3.62 2.32 5.95 3.4l7.82 3.57c3.91 1.76 6.85 3.71 8.84 5.86 1.98 2.15 2.97 5.01 2.97 8.58 0 3.12-.91 5.85-2.72 8.2s-4.19 4.21-7.14 5.57-6.17 2.04-9.69 2.04z"/><path d="m328.86 155.84c-1.83 0-3.52-.33-5.06-.99s-2.89-1.57-4.05-2.73-2.05-2.5-2.69-4.03-.96-3.16-.96-4.9.32-3.37.96-4.9 1.54-2.87 2.69-4.03 2.5-2.07 4.05-2.73c1.54-.66 3.23-.99 5.06-.99s3.2.24 4.32.72 2.1 1.11 2.95 1.88v3.58c-.53-.39-1.13-.81-1.79-1.26s-1.43-.86-2.31-1.21-1.93-.52-3.16-.52c-1.81 0-3.42.41-4.84 1.23s-2.54 1.95-3.36 3.38-1.23 3.05-1.23 4.86.41 3.42 1.23 4.84 1.94 2.55 3.36 3.38 3.04 1.25 4.84 1.25c1.23 0 2.22-.13 2.96-.38s1.34-.55 1.79-.88.8-.61 1.07-.83l3.5 1.45c-.58.63-1.33 1.23-2.24 1.82-.92.59-1.97 1.07-3.16 1.45-1.19.37-2.5.56-3.92.56zm5.82-1.63v-9.25h-7.15v-2.89h10.66v9.94l-3.5 2.2z"/><path d="m342.81 155.3v-26.02h2.96v26.02z"/><path d="m359.07 155.84c-1.54 0-2.95-.39-4.23-1.17s-2.29-1.87-3.05-3.27-1.14-3.01-1.14-4.84c0-2 .38-3.72 1.14-5.17s1.8-2.56 3.12-3.34c1.33-.78 2.81-1.17 4.45-1.17 1.04 0 2.09.25 3.16.74s1.99 1.17 2.76 2.04v-2.42h2.96v18.07h-2.96v-3.07c-.63.96-1.48 1.81-2.55 2.53s-2.29 1.08-3.67 1.08zm.47-2.89c1.11 0 2.1-.29 2.96-.87s1.55-1.38 2.06-2.4.75-2.17.72-3.45l-.04-3.47c-.75-.94-1.55-1.67-2.4-2.2s-1.84-.79-2.95-.79c-1.3 0-2.41.33-3.32.98-.92.65-1.62 1.49-2.11 2.51s-.74 2.13-.74 3.31.24 2.22.72 3.2 1.16 1.75 2.04 2.33 1.9.87 3.05.87z"/><path d="m378.69 155.84c-.7 0-1.43-.09-2.19-.27s-1.44-.4-2.04-.65-1.05-.48-1.34-.67v-3.18c.34.24.81.51 1.43.81.61.3 1.27.55 1.97.76s1.35.31 1.95.31c1.13 0 2.03-.25 2.69-.76s.99-1.13.99-1.88c0-.58-.22-1.04-.67-1.37s-1.09-.66-1.93-.98l-2.67-.98c-1.4-.53-2.32-1.2-2.78-2.01s-.69-1.73-.69-2.76.26-1.95.78-2.75 1.26-1.43 2.22-1.9 2.08-.7 3.36-.7c1.06 0 2.05.15 2.96.45.92.3 1.58.61 1.99.92v3.18c-.51-.39-1.19-.76-2.06-1.12s-1.76-.54-2.67-.54c-1.13 0-1.98.26-2.55.79s-.85 1.08-.85 1.66c0 .46.16.92.49 1.39s.9.85 1.72 1.14l3.04 1.08c1.18.41 2.06 1 2.64 1.77s.87 1.67.87 2.71-.28 1.94-.85 2.78-1.35 1.51-2.35 2-2.15.74-3.45.74z"/><path d="m391.03 147.78v-3.25h10.88v3.25z"/><path d="m421.52 155.84c-1.59 0-2.98-.29-4.17-.87s-2.12-1.37-2.78-2.37-.99-2.15-.99-3.45.31-2.3.92-3.14c.62-.84 1.4-1.57 2.37-2.19.96-.61 1.99-1.17 3.07-1.66s2.11-1 3.07-1.52 1.75-1.11 2.37-1.77c.61-.66.92-1.47.92-2.44 0-.63-.16-1.14-.49-1.54s-.73-.69-1.21-.88-.95-.29-1.41-.29c-.72 0-1.41.23-2.06.69s-.98 1.25-.98 2.38c0 .67.18 1.32.54 1.93s.82 1.24 1.39 1.86 1.14 1.28 1.72 1.95c1.85 2.1 3.73 4.16 5.64 6.2 1.9 2.04 3.95 4.22 6.14 6.56h-4.01c-1.16-1.16-2.29-2.32-3.4-3.5s-2.22-2.39-3.34-3.63-2.27-2.52-3.45-3.85c-.72-.82-1.45-1.6-2.19-2.35s-1.35-1.54-1.86-2.38-.76-1.82-.76-2.93c0-1.37.32-2.51.96-3.42s1.46-1.58 2.48-2.02c1.01-.45 2.07-.67 3.18-.67s2.14.23 3.16.69 1.87 1.12 2.53 1.99.99 1.94.99 3.22c0 .72-.12 1.38-.36 1.97s-.57 1.12-.98 1.59-.89.91-1.43 1.32-1.12.81-1.72 1.19c-.84.53-1.74 1.02-2.69 1.48s-1.85.92-2.69 1.39-1.53 1.01-2.06 1.61-.79 1.33-.79 2.17c0 1.11.42 1.97 1.26 2.58s1.92.92 3.22.92c1.04 0 1.89-.16 2.57-.49s1.26-.75 1.75-1.28.98-1.11 1.46-1.73c.67-.87 1.32-1.81 1.93-2.82s1.33-2.24 2.15-3.69h3.54c-.89 1.59-1.76 3.07-2.6 4.44s-1.65 2.59-2.42 3.65c-.7.99-1.46 1.87-2.28 2.64s-1.73 1.37-2.75 1.81-2.17.65-3.47.65z"/><path d="m455.64 155.3-8.13-18.07h3.54l5.46 13.3 5.93-13.3h3.54l-8.49 18.07h-1.84z"/><path d="m476.74 155.84c-1.54 0-2.95-.39-4.23-1.17s-2.29-1.87-3.05-3.27-1.14-3.01-1.14-4.84c0-2 .38-3.72 1.14-5.17s1.8-2.56 3.12-3.34c1.33-.78 2.81-1.17 4.45-1.17 1.04 0 2.09.25 3.16.74s1.99 1.17 2.76 2.04v-2.42h2.96v18.07h-2.96v-3.07c-.63.96-1.48 1.81-2.55 2.53s-2.29 1.08-3.67 1.08zm.47-2.89c1.11 0 2.1-.29 2.96-.87s1.55-1.38 2.06-2.4.75-2.17.72-3.45l-.04-3.47c-.75-.94-1.55-1.67-2.4-2.2s-1.84-.79-2.95-.79c-1.3 0-2.41.33-3.32.98-.92.65-1.62 1.49-2.11 2.51s-.74 2.13-.74 3.31.24 2.22.72 3.2 1.16 1.75 2.04 2.33 1.9.87 3.05.87zm15.57 2.89c-1.37 0-2.63-.25-3.78-.74-1.14-.49-2.14-1.18-3-2.06s-1.51-1.89-1.97-3.04c-.46-1.14-.69-2.35-.69-3.63 0-1.71.37-3.29 1.12-4.73.75-1.45 1.78-2.6 3.09-3.47s2.81-1.3 4.5-1.3c1.85 0 3.4.39 4.62 1.16s2.15 1.82 2.76 3.14.92 2.82.92 4.48v1.77h-14.24v-2.53h11.31c-.12-1.18-.45-2.14-.99-2.89s-1.2-1.31-1.97-1.68-1.58-.56-2.42-.56c-1.16 0-2.16.31-3 .92s-1.49 1.42-1.95 2.42-.69 2.09-.69 3.27.26 2.23.78 3.23 1.26 1.81 2.22 2.42 2.08.92 3.36.92 2.51-.33 3.63-.99 2.07-1.39 2.84-2.19v3.22c-.34.41-.84.84-1.5 1.28-.66.45-1.42.82-2.28 1.12s-1.75.45-2.69.45z"/><path d="m512.08 164.51c-1.11 0-2.05-.13-2.84-.38-.78-.25-1.45-.57-2-.94s-1.06-.73-1.52-1.07v-3.18c.36.26.84.61 1.43 1.03s1.3.8 2.13 1.14 1.76.51 2.8.51c1.18 0 2.26-.22 3.25-.65s1.78-1.07 2.38-1.92c.6-.84.9-1.86.9-3.04v-3.79c-.63.96-1.47 1.81-2.55 2.53s-2.29 1.08-3.67 1.08c-1.54 0-2.95-.39-4.23-1.17s-2.29-1.87-3.05-3.27-1.14-3.01-1.14-4.84c0-2 .38-3.72 1.14-5.17s1.8-2.56 3.13-3.34c1.32-.78 2.81-1.17 4.44-1.17 1.04 0 2.09.25 3.16.74s1.99 1.17 2.76 2.04v-2.42h2.96v17.71c0 2.14-.43 3.93-1.3 5.35s-2.02 2.48-3.47 3.18-3.02 1.05-4.73 1.05zm.79-11.6c1.11 0 2.09-.29 2.94-.87s1.53-1.37 2.02-2.38.74-2.16.74-3.43v-3.47c-.75-.94-1.55-1.67-2.4-2.19-.86-.52-1.84-.78-2.94-.78-1.3 0-2.41.32-3.32.96-.92.64-1.62 1.47-2.11 2.49s-.74 2.13-.74 3.31.24 2.22.72 3.18 1.16 1.73 2.04 2.31 1.9.87 3.05.87z"/><path d="m532.28 155.84c-.7 0-1.43-.09-2.19-.27s-1.44-.4-2.04-.65-1.05-.48-1.34-.67v-3.18c.34.24.81.51 1.43.81s1.27.55 1.97.76 1.35.31 1.95.31c1.13 0 2.03-.25 2.69-.76s.99-1.13.99-1.88c0-.58-.22-1.04-.67-1.37s-1.09-.66-1.93-.98l-2.67-.98c-1.4-.53-2.33-1.2-2.78-2.01-.46-.81-.69-1.73-.69-2.76s.26-1.95.78-2.75 1.26-1.43 2.22-1.9 2.08-.7 3.36-.7c1.06 0 2.05.15 2.96.45.92.3 1.58.61 1.99.92v3.18c-.51-.39-1.19-.76-2.06-1.12s-1.76-.54-2.67-.54c-1.13 0-1.98.26-2.55.79s-.85 1.08-.85 1.66c0 .46.16.92.49 1.39s.9.85 1.72 1.14l3.04 1.08c1.18.41 2.06 1 2.64 1.77s.87 1.67.87 2.71-.28 1.94-.85 2.78-1.35 1.51-2.35 2-2.15.74-3.45.74z"/><path d="m549.34 154.43-8.09-17.2h3.54l7.15 15.03zm-5.28 9.54 6.47-12.18 6.72-14.56h3.54l-13.3 26.74z"/><path d="m568.71 155.84c-.7 0-1.43-.09-2.19-.27s-1.44-.4-2.04-.65-1.05-.48-1.34-.67v-3.18c.34.24.81.51 1.43.81s1.27.55 1.97.76 1.35.31 1.95.31c1.13 0 2.03-.25 2.69-.76s.99-1.13.99-1.88c0-.58-.22-1.04-.67-1.37s-1.09-.66-1.93-.98l-2.67-.98c-1.4-.53-2.33-1.2-2.78-2.01-.46-.81-.69-1.73-.69-2.76s.26-1.95.78-2.75 1.26-1.43 2.22-1.9 2.08-.7 3.36-.7c1.06 0 2.05.15 2.96.45.92.3 1.58.61 1.99.92v3.18c-.51-.39-1.19-.76-2.06-1.12s-1.76-.54-2.67-.54c-1.13 0-1.98.26-2.55.79s-.85 1.08-.85 1.66c0 .46.16.92.49 1.39s.9.85 1.72 1.14l3.04 1.08c1.18.41 2.06 1 2.64 1.77s.87 1.67.87 2.71-.28 1.94-.85 2.78-1.35 1.51-2.35 2-2.15.74-3.45.74z"/><path d="m587.22 155.84c-1.01 0-1.89-.21-2.64-.63s-1.33-1.02-1.73-1.79c-.41-.77-.61-1.66-.61-2.67v-10.73h-3.47v-.87c1.18-.53 2.17-1.4 2.96-2.62s1.49-2.72 2.1-4.5h1.37v5.2h5.82v2.78h-5.82v10.59c0 .75.25 1.34.74 1.77s1.14.65 1.93.65c.72 0 1.38-.09 1.97-.27s1.07-.38 1.43-.6v2.6c-.48.39-1.05.66-1.7.83s-1.43.25-2.35.25z"/><path d="m604.67 155.84c-1.37 0-2.63-.25-3.78-.74-1.14-.49-2.14-1.18-3-2.06s-1.51-1.89-1.97-3.04c-.46-1.14-.69-2.35-.69-3.63 0-1.71.37-3.29 1.12-4.73.75-1.45 1.78-2.6 3.09-3.47s2.81-1.3 4.5-1.3c1.85 0 3.4.39 4.62 1.16s2.15 1.82 2.76 3.14c.62 1.33.92 2.82.92 4.48v1.77h-14.24v-2.53h11.31c-.12-1.18-.45-2.14-.99-2.89s-1.2-1.31-1.97-1.68-1.58-.56-2.42-.56c-1.16 0-2.16.31-3 .92s-1.49 1.42-1.95 2.42-.69 2.09-.69 3.27.26 2.23.78 3.23 1.26 1.81 2.22 2.42 2.08.92 3.36.92 2.51-.33 3.63-.99 2.07-1.39 2.84-2.19v3.22c-.34.41-.84.84-1.5 1.28-.66.45-1.42.82-2.28 1.12s-1.75.45-2.69.45z"/><path d="m617.14 155.3v-18.07h2.96v18.07zm12.47 0-.04-10.73c0-1.57-.4-2.76-1.21-3.58s-1.92-1.23-3.34-1.23c-1.11 0-2.1.36-2.98 1.07s-1.68 1.54-2.4 2.48v-3.22c.38-.48.86-.97 1.41-1.46s1.2-.91 1.95-1.25 1.59-.51 2.53-.51c1.47 0 2.82.39 4.07 1.17 1.24.78 2.1 1.96 2.58 3.52l.4.87v12.86h-2.96zm12.47 0-.04-10.73c0-1.57-.4-2.76-1.21-3.58s-1.92-1.23-3.34-1.23c-1.11 0-2.06.36-2.85 1.07s-1.55 1.54-2.28 2.48l-.87-2.42c.89-1.06 1.85-1.99 2.87-2.8s2.23-1.21 3.63-1.21c1.23 0 2.38.27 3.45.81s1.94 1.36 2.6 2.46.99 2.48.99 4.14v11.02h-2.96z"/><path d="m658.8 155.84c-1.37 0-2.63-.25-3.78-.74-1.14-.49-2.14-1.18-3-2.06s-1.51-1.89-1.97-3.04c-.46-1.14-.69-2.35-.69-3.63 0-1.71.37-3.29 1.12-4.73.75-1.45 1.78-2.6 3.09-3.47s2.81-1.3 4.5-1.3c1.85 0 3.4.39 4.62 1.16s2.15 1.82 2.76 3.14c.62 1.33.92 2.82.92 4.48v1.77h-14.24v-2.53h11.31c-.12-1.18-.45-2.14-.99-2.89s-1.2-1.31-1.97-1.68-1.58-.56-2.42-.56c-1.16 0-2.16.31-3 .92s-1.49 1.42-1.95 2.42-.69 2.09-.69 3.27.26 2.23.78 3.23 1.26 1.81 2.22 2.42 2.08.92 3.36.92 2.51-.33 3.63-.99 2.07-1.39 2.84-2.19v3.22c-.34.41-.84.84-1.5 1.28-.66.45-1.42.82-2.28 1.12s-1.75.45-2.69.45z"/><path d="m671.26 155.3v-18.07h2.96v18.07zm2.96-10.91v-3.54c.7-1.2 1.54-2.17 2.53-2.89s2-1.08 3.04-1.08c.7 0 1.33.12 1.88.36v3.43c-.36-.22-.74-.39-1.12-.51-.39-.12-.78-.18-1.19-.18-1.23 0-2.22.43-2.98 1.3s-1.47 1.9-2.15 3.11z"/><path d="m233.2 47.63v100.88l-99.87 23.34-.32.08-.31-.07-101.87-23.35v-100.88l101.87-24.49.31-.07.32.07z"/><g fill="#fff"><path d="m97.83 63-65 10v-24l64-15z" stroke="#000" stroke-miterlimit="10" stroke-width="4"/><path d="m132.83 58-35 5-1-29 35-8z" stroke="#000" stroke-miterlimit="10" stroke-width="4"/><path d="m62.83 97h-30v-24l30-4z" stroke="#000" stroke-miterlimit="10" stroke-width="4"/><path d="m132.83 95-70 2v-28.29l70-8.71z" stroke="#000" stroke-miterlimit="10" stroke-width="4"/><path d="m97.83 128-65-8v-23h65z" stroke="#000" stroke-miterlimit="10" stroke-width="4"/><path d="m132.83 133-35-5v-31h35z" stroke="#000" stroke-miterlimit="10" stroke-width="4"/><path d="m62.83 153-30-6.19v-26.81l30 4.12z" stroke="#000" stroke-miterlimit="10" stroke-width="4"/><path d="m132.83 168-70-15.26v-28.74l70 10z" stroke="#000" stroke-miterlimit="10" stroke-width="4"/><path d="m138.83 165 49-11v-113l-50.72-11.95z"/><path d="m191.83 153 37-8v-94l-36.78-8.91z"/></g><rect height="16.22" rx="1" transform="matrix(.70710678 .70710678 -.70710678 .70710678 73.5 -92.17)" width="2.45" x="146.78" y="34.53"/><rect height="23.64" rx="1" transform="matrix(.70710678 .70710678 -.70710678 .70710678 80.69 -93.83)" width="2.45" x="152.38" y="38.67"/><rect height="16.22" rx="1" transform="matrix(-.70710678 -.70710678 .70710678 -.70710678 276.3 388.78)" width="2.58" x="217.38" y="129.05"/><rect height="23.64" rx="1" transform="matrix(-.70710678 -.70710678 .70710678 -.70710678 271.93 370.53)" width="2.58" x="211.41" y="117.13"/><circle cx="91.16" cy="43.86" r="1.5"/><circle cx="91.16" cy="53.86" r="1.5"/><circle cx="125.16" cy="36.86" r="1.5"/><circle cx="125.16" cy="46.86" r="1.5"/><circle cx="125.16" cy="71.86" r="1.5"/><circle cx="125.16" cy="81.86" r="1.5"/><circle cx="125.16" cy="108.86" r="1.5"/><circle cx="125.16" cy="118.86" r="1.5"/><circle cx="125.16" cy="144.86" r="1.5"/><circle cx="125.16" cy="154.86" r="1.5"/><circle cx="90.16" cy="106.86" r="1.5"/><circle cx="90.16" cy="116.86" r="1.5"/><circle cx="56.16" cy="77.86" r="1.5"/><circle cx="56.16" cy="87.86" r="1.5"/><circle cx="56.16" cy="132.86" r="1.5"/><circle cx="56.16" cy="142.86" r="1.5"/></svg>