<?xml version="1.0" encoding="UTF-8"?><svg id="Logo_2.0" xmlns="http://www.w3.org/2000/svg" width="240" height="240" viewBox="0 0 240 240"><defs><style>.cls-1{stroke:#000;stroke-miterlimit:10;stroke-width:4px;}.cls-1,.cls-2{fill:#fff;}.cls-3,.cls-2{stroke-width:0px;}</style></defs><polygon class="cls-3" points="221.19 70.13 221.19 171.01 121.31 194.35 120.99 194.43 120.69 194.36 18.81 171.01 18.81 70.13 120.69 45.64 120.99 45.57 121.31 45.64 221.19 70.13"/><polygon class="cls-1" points="85.81 85.5 20.81 95.5 20.81 71.5 84.81 56.5 85.81 85.5"/><polygon class="cls-1" points="120.81 80.5 85.81 85.5 84.81 56.5 119.81 48.5 120.81 80.5"/><polygon class="cls-1" points="50.81 119.5 20.81 119.5 20.81 95.5 50.81 91.5 50.81 119.5"/><polygon class="cls-1" points="120.81 117.5 50.81 119.5 50.81 91.21 120.81 82.5 120.81 117.5"/><polygon class="cls-1" points="85.81 150.5 20.81 142.5 20.81 119.5 85.81 119.5 85.81 150.5"/><polygon class="cls-1" points="120.81 155.5 85.81 150.5 85.81 119.5 120.81 119.5 120.81 155.5"/><polygon class="cls-1" points="50.81 175.5 20.81 169.31 20.81 142.5 50.81 146.62 50.81 175.5"/><polygon class="cls-1" points="120.81 190.5 50.81 175.24 50.81 146.5 120.81 156.5 120.81 190.5"/><polygon class="cls-2" points="126.81 187.5 175.81 176.5 175.81 63.5 125.09 51.55 126.81 187.5"/><polygon class="cls-2" points="179.81 175.5 216.81 167.5 216.81 73.5 180.03 64.59 179.81 175.5"/><rect class="cls-3" x="134.77" y="57.03" width="2.45" height="16.22" rx="1" ry="1" transform="translate(85.89 -77.08) rotate(45)"/><rect class="cls-3" x="140.37" y="61.17" width="2.45" height="23.64" rx="1" ry="1" transform="translate(93.08 -78.74) rotate(45)"/><rect class="cls-3" x="205.36" y="151.55" width="2.58" height="16.22" rx="1" ry="1" transform="translate(239.88 418.69) rotate(-135)"/><rect class="cls-3" x="199.4" y="139.63" width="2.58" height="23.64" rx="1" ry="1" transform="translate(235.5 400.45) rotate(-135)"/><circle class="cls-3" cx="79.14" cy="66.36" r="1.5"/><circle class="cls-3" cx="79.14" cy="76.36" r="1.5"/><circle class="cls-3" cx="113.14" cy="59.36" r="1.5"/><circle class="cls-3" cx="113.14" cy="69.36" r="1.5"/><circle class="cls-3" cx="113.14" cy="94.36" r="1.5"/><circle class="cls-3" cx="113.14" cy="104.36" r="1.5"/><circle class="cls-3" cx="113.14" cy="131.36" r="1.5"/><circle class="cls-3" cx="113.14" cy="141.36" r="1.5"/><circle class="cls-3" cx="113.14" cy="167.36" r="1.5"/><circle class="cls-3" cx="113.14" cy="177.36" r="1.5"/><circle class="cls-3" cx="78.14" cy="129.36" r="1.5"/><circle class="cls-3" cx="78.14" cy="139.36" r="1.5"/><circle class="cls-3" cx="44.14" cy="100.36" r="1.5"/><circle class="cls-3" cx="44.14" cy="110.36" r="1.5"/><circle class="cls-3" cx="44.14" cy="155.36" r="1.5"/><circle class="cls-3" cx="44.14" cy="165.36" r="1.5"/></svg>