<?xml version="1.0" encoding="UTF-8"?>
<svg id="Vægsystemer" xmlns="http://www.w3.org/2000/svg" viewBox="0 0 1227 913.49">
  <defs>
    <style>
      .cls-1 {
        stroke: #000;
        stroke-miterlimit: 10;
        stroke-width: 4px;
      }

      .cls-1, .cls-2 {
        fill: #fff;
      }

      .cls-3, .cls-2 {
        stroke-width: 0px;
      }
    </style>
  </defs>
  <polygon class="cls-2" points="959.09 777.38 1172.86 731.16 1172.86 188.06 960.33 136.58 959.09 777.38"/>
  <rect class="cls-3" x="1106.69" y="639.06" width="14.92" height="93.7" rx="1" ry="1" transform="translate(1416.97 1958.74) rotate(-135)"/>
  <rect class="cls-3" x="1072.22" y="570.16" width="14.92" height="136.58" rx="1" ry="1" transform="translate(1391.68 1853.34) rotate(-135)"/>
  <g>
    <polygon class="cls-2" points="645.43 846.71 928.53 783.15 928.53 130.28 635.46 61.28 645.43 846.71"/>
    <rect class="cls-3" x="691.36" y="92.92" width="14.15" height="93.7" rx="1" ry="1" transform="translate(303.4 -452.93) rotate(45)"/>
    <rect class="cls-3" x="723.73" y="116.83" width="14.15" height="136.58" rx="1" ry="1" transform="translate(344.95 -462.53) rotate(45)"/>
    <g>
      <polygon class="cls-3" points="1205.55 168.59 1205.55 751.43 621.19 886.28 619.32 886.75 617.51 886.34 21.45 751.43 21.45 168.59 617.51 27.15 619.32 26.75 621.19 27.15 1205.55 168.59"/>
      <polygon class="cls-1" points="408.55 257.39 33 315.17 33 176.5 402.77 89.84 408.55 257.39"/>
      <polygon class="cls-1" points="610.55 228.25 408.55 257.39 402.77 89.84 608.55 48.25 610.55 228.25"/>
      <polygon class="cls-1" points="206.55 452.25 33 453.83 32.55 315.25 206.55 290.25 206.55 452.25"/>
      <polygon class="cls-1" points="610.76 442.27 206.55 452.25 206.33 290.4 610.55 235.25 610.76 442.27"/>
      <polygon class="cls-1" points="408.55 632.94 33 586.71 32.55 456.25 408.55 453.83 408.55 632.94"/>
      <polygon class="cls-1" points="610.76 661.82 408.55 632.94 408.55 453.83 610.76 453.83 610.76 661.82"/>
      <polygon class="cls-1" points="206.33 777.38 33 741.63 34.55 589.25 206.33 610.55 206.33 777.38"/>
      <polygon class="cls-1" points="610.76 864.04 206.33 775.88 206.55 610.25 610.76 667.6 610.76 864.04"/>
      <g>
        <circle class="cls-3" cx="369.99" cy="146.84" r="8.67"/>
        <circle class="cls-3" cx="369.99" cy="204.62" r="8.67"/>
      </g>
      <g>
        <circle class="cls-3" cx="566.43" cy="106.4" r="8.67"/>
        <circle class="cls-3" cx="566.43" cy="164.17" r="8.67"/>
      </g>
      <g>
        <circle class="cls-3" cx="566.43" cy="308.61" r="8.67"/>
        <circle class="cls-3" cx="566.43" cy="366.39" r="8.67"/>
      </g>
      <g>
        <circle class="cls-3" cx="566.43" cy="522.39" r="8.67"/>
        <circle class="cls-3" cx="566.43" cy="580.16" r="8.67"/>
      </g>
      <g>
        <circle class="cls-3" cx="566.43" cy="730.38" r="8.67"/>
        <circle class="cls-3" cx="566.43" cy="788.16" r="8.67"/>
      </g>
      <g>
        <circle class="cls-3" cx="364.21" cy="510.83" r="8.67"/>
        <circle class="cls-3" cx="364.21" cy="568.61" r="8.67"/>
      </g>
      <g>
        <circle class="cls-3" cx="167.77" cy="343.28" r="8.67"/>
        <circle class="cls-3" cx="167.77" cy="401.05" r="8.67"/>
      </g>
      <g>
        <circle class="cls-3" cx="167.77" cy="661.05" r="8.67"/>
        <circle class="cls-3" cx="167.77" cy="718.82" r="8.67"/>
      </g>
    </g>
    <g>
      <polygon class="cls-1" points="819.08 258.97 1194.63 316.75 1194.63 178.09 824.86 91.42 819.08 258.97"/>
      <polygon class="cls-1" points="617.55 230.25 819.08 258.97 824.86 91.42 617.55 48.25 617.55 230.25"/>
      <polygon class="cls-1" points="1021.07 453.83 1194.63 455.41 1195.07 316.83 1021.07 291.83 1021.07 453.83"/>
      <polygon class="cls-1" points="616.87 443.86 1021.07 453.83 1021.3 291.99 617.07 236.83 616.87 443.86"/>
      <polygon class="cls-1" points="819.08 634.52 1194.63 588.3 1195.07 457.83 819.08 455.41 819.08 634.52"/>
      <polygon class="cls-1" points="616.87 663.41 819.08 634.52 819.08 455.41 616.87 455.41 616.87 663.41"/>
      <polygon class="cls-1" points="1021.3 778.96 1194.63 743.21 1193.07 590.83 1021.3 612.13 1021.3 778.96"/>
      <polygon class="cls-1" points="616.87 865.62 1021.3 777.46 1021.07 611.83 616.87 669.18 616.87 865.62"/>
      <g>
        <circle class="cls-3" cx="857.64" cy="148.42" r="8.67"/>
        <circle class="cls-3" cx="857.64" cy="206.2" r="8.67"/>
      </g>
      <g>
        <circle class="cls-3" cx="661.2" cy="107.98" r="8.67"/>
        <circle class="cls-3" cx="661.2" cy="165.76" r="8.67"/>
      </g>
      <g>
        <circle class="cls-3" cx="661.2" cy="310.2" r="8.67"/>
        <circle class="cls-3" cx="661.2" cy="367.97" r="8.67"/>
      </g>
      <g>
        <circle class="cls-3" cx="661.2" cy="523.97" r="8.67"/>
        <circle class="cls-3" cx="661.2" cy="581.74" r="8.67"/>
      </g>
      <g>
        <circle class="cls-3" cx="661.2" cy="731.96" r="8.67"/>
        <circle class="cls-3" cx="661.2" cy="789.74" r="8.67"/>
      </g>
      <g>
        <circle class="cls-3" cx="863.42" cy="512.41" r="8.67"/>
        <circle class="cls-3" cx="863.42" cy="570.19" r="8.67"/>
      </g>
      <g>
        <circle class="cls-3" cx="1059.86" cy="344.86" r="8.67"/>
        <circle class="cls-3" cx="1059.86" cy="402.64" r="8.67"/>
      </g>
      <g>
        <circle class="cls-3" cx="1059.86" cy="662.63" r="8.67"/>
        <circle class="cls-3" cx="1059.86" cy="720.41" r="8.67"/>
      </g>
    </g>
  </g>
</svg>